<mxfile host="app.diagrams.net" agent="Mozilla/5.0 (X11; Linux x86_64; rv:131.0) Gecko/20100101 Firefox/131.0" version="24.7.7">
  <diagram name="Page-1" id="JcafK7ANZlKbG8QbWb8-">
    <mxGraphModel dx="959" dy="546" grid="1" gridSize="10" guides="1" tooltips="1" connect="1" arrows="1" fold="1" page="1" pageScale="1" pageWidth="850" pageHeight="1100" math="0" shadow="0">
      <root>
        <mxCell id="0" />
        <mxCell id="1" parent="0" />
        <mxCell id="5Gau2gknwUhrAmechMQ2-12" value="" style="rounded=0;whiteSpace=wrap;html=1;fillColor=none;dashed=1;" vertex="1" parent="1">
          <mxGeometry x="440" y="160" width="280" height="80" as="geometry" />
        </mxCell>
        <mxCell id="5Gau2gknwUhrAmechMQ2-1" value="Reference genome" style="ellipse;whiteSpace=wrap;html=1;aspect=fixed;" vertex="1" parent="1">
          <mxGeometry x="85" y="160" width="80" height="80" as="geometry" />
        </mxCell>
        <mxCell id="5Gau2gknwUhrAmechMQ2-3" value="" style="shape=flexArrow;endArrow=classic;html=1;rounded=0;exitX=1;exitY=0.5;exitDx=0;exitDy=0;" edge="1" parent="1" source="5Gau2gknwUhrAmechMQ2-1">
          <mxGeometry width="50" height="50" relative="1" as="geometry">
            <mxPoint x="405" y="440" as="sourcePoint" />
            <mxPoint x="245" y="200" as="targetPoint" />
          </mxGeometry>
        </mxCell>
        <mxCell id="5Gau2gknwUhrAmechMQ2-4" value="Build a suffix array" style="rounded=0;whiteSpace=wrap;html=1;" vertex="1" parent="1">
          <mxGeometry x="245" y="170" width="120" height="60" as="geometry" />
        </mxCell>
        <mxCell id="5Gau2gknwUhrAmechMQ2-6" value="" style="shape=flexArrow;endArrow=classic;html=1;rounded=0;exitX=1;exitY=0.5;exitDx=0;exitDy=0;entryX=0;entryY=0.5;entryDx=0;entryDy=0;" edge="1" parent="1" source="5Gau2gknwUhrAmechMQ2-4" target="5Gau2gknwUhrAmechMQ2-12">
          <mxGeometry width="50" height="50" relative="1" as="geometry">
            <mxPoint x="405" y="440" as="sourcePoint" />
            <mxPoint x="445" y="200" as="targetPoint" />
          </mxGeometry>
        </mxCell>
        <mxCell id="5Gau2gknwUhrAmechMQ2-7" value="Burrows-Wheeler transformation" style="rounded=0;whiteSpace=wrap;html=1;" vertex="1" parent="1">
          <mxGeometry x="450" y="170" width="120" height="60" as="geometry" />
        </mxCell>
        <mxCell id="5Gau2gknwUhrAmechMQ2-8" value="Addition of FM index" style="rounded=0;whiteSpace=wrap;html=1;" vertex="1" parent="1">
          <mxGeometry x="590" y="170" width="120" height="60" as="geometry" />
        </mxCell>
        <mxCell id="5Gau2gknwUhrAmechMQ2-10" value="&lt;font style=&quot;font-size: 20px;&quot;&gt;Preprocessing&lt;/font&gt;" style="rounded=0;whiteSpace=wrap;html=1;strokeColor=none;fillColor=none;" vertex="1" parent="1">
          <mxGeometry x="75" y="70" width="165" height="50" as="geometry" />
        </mxCell>
        <mxCell id="5Gau2gknwUhrAmechMQ2-13" value="FM index class" style="rounded=0;whiteSpace=wrap;html=1;strokeColor=none;fillColor=none;fontSize=12;align=left;" vertex="1" parent="1">
          <mxGeometry x="440" y="120" width="100" height="20" as="geometry" />
        </mxCell>
        <mxCell id="5Gau2gknwUhrAmechMQ2-14" value="&lt;div align=&quot;left&quot;&gt;Karkkainen-Sanders algorithm&lt;br&gt;&lt;/div&gt;" style="rounded=0;whiteSpace=wrap;html=1;strokeColor=none;fillColor=none;fontSize=12;" vertex="1" parent="1">
          <mxGeometry x="240" y="120" width="120" height="30" as="geometry" />
        </mxCell>
      </root>
    </mxGraphModel>
  </diagram>
</mxfile>
